<svg width="530" height="468" viewBox="0 0 530 468" fill="none" xmlns="http://www.w3.org/2000/svg">
<path d="M422.239 11.0538C422.239 11.0538 456.757 5.72651 481.446 19.0276C507.293 32.9526 531.701 71.3078 529 112C526.604 148.098 510.5 171.5 481.446 191.5C452.392 211.5 148.127 84.3015 51.2531 222.078C16.9196 270.907 2.72584 321.516 1.07194 366.456C-0.407559 406.658 21.2277 445.055 38.8637 455.877C79.6518 480.904 153.498 455.877 153.498 455.877" stroke="#47AD7F" stroke-dasharray="5 5"/>
<circle cx="432.5" cy="9.5" r="9.5" fill="url(#paint0_linear)"/>
<circle cx="432.5" cy="9.5" r="5.5" fill="#47AD7F"/>
<circle cx="148.5" cy="457.5" r="9.5" fill="url(#paint1_linear)"/>
<circle cx="148.5" cy="457.5" r="5.5" fill="#47AD7F"/>
<defs>
<linearGradient id="paint0_linear" x1="418.223" y1="16.211" x2="431.605" y2="-11.0155" gradientUnits="userSpaceOnUse">
<stop stop-color="#35756C"/>
<stop offset="1" stop-color="#46AB7E"/>
</linearGradient>
<linearGradient id="paint1_linear" x1="134.223" y1="464.211" x2="147.605" y2="436.985" gradientUnits="userSpaceOnUse">
<stop stop-color="#35756C"/>
<stop offset="1" stop-color="#46AB7E"/>
</linearGradient>
</defs>
</svg>
