<svg width="41" height="41" viewBox="0 0 41 41" fill="none" xmlns="http://www.w3.org/2000/svg">
<path d="M22.538 17.776C22.538 18.112 22.468 18.4387 22.328 18.756C22.1973 19.064 22.02 19.372 21.796 19.68C21.572 19.9787 21.32 20.2773 21.04 20.576C20.76 20.8653 20.48 21.15 20.2 21.43C20.0413 21.5887 19.8547 21.7753 19.64 21.99C19.4347 22.2047 19.2387 22.4287 19.052 22.662C18.8653 22.8953 18.7067 23.1193 18.576 23.334C18.4547 23.5487 18.394 23.7353 18.394 23.894H22.86V25H16.98C16.9707 24.944 16.966 24.888 16.966 24.832C16.966 24.776 16.966 24.7247 16.966 24.678C16.966 24.2393 17.036 23.8333 17.176 23.46C17.3253 23.0773 17.5167 22.718 17.75 22.382C17.9833 22.046 18.2447 21.7287 18.534 21.43C18.8233 21.1313 19.108 20.842 19.388 20.562C19.6213 20.338 19.8407 20.1187 20.046 19.904C20.2607 19.68 20.4473 19.4607 20.606 19.246C20.774 19.022 20.9047 18.7933 20.998 18.56C21.1007 18.3267 21.152 18.0793 21.152 17.818C21.152 17.538 21.1053 17.3 21.012 17.104C20.928 16.908 20.8113 16.7447 20.662 16.614C20.5127 16.4833 20.3353 16.39 20.13 16.334C19.934 16.2687 19.724 16.236 19.5 16.236C19.2293 16.236 18.982 16.2733 18.758 16.348C18.534 16.4227 18.3333 16.5113 18.156 16.614C17.9787 16.7073 17.8293 16.81 17.708 16.922C17.5867 17.0247 17.4933 17.104 17.428 17.16L16.784 16.236C16.868 16.1427 16.994 16.0307 17.162 15.9C17.33 15.76 17.5307 15.6293 17.764 15.508C17.9973 15.3867 18.2587 15.284 18.548 15.2C18.8373 15.116 19.15 15.074 19.486 15.074C20.5033 15.074 21.264 15.312 21.768 15.788C22.2813 16.2547 22.538 16.9173 22.538 17.776Z" fill="white"/>
<circle cx="20.5" cy="20.5" r="20" stroke="url(#paint0_linear)"/>
<circle cx="20.5" cy="20.5" r="12" stroke="white"/>
<defs>
<linearGradient id="paint0_linear" x1="-10.3073" y1="34.9817" x2="18.5693" y2="-23.7702" gradientUnits="userSpaceOnUse">
<stop stop-color="#35756C"/>
<stop offset="1" stop-color="#46AB7E"/>
</linearGradient>
</defs>
</svg>
