<svg width="66" height="65" viewBox="0 0 66 65" fill="none" xmlns="http://www.w3.org/2000/svg">
<rect x="0.657471" width="64.8651" height="65" rx="8" fill="url(#paint0_linear)"/>
<path d="M47.1927 19.0361H43.9879V15.8313C43.988 14.824 43.1638 14 42.157 14H18.8072C17.8 14 16.976 14.824 16.976 15.8313V45.1325C16.976 46.1397 17.8 46.9638 18.8073 46.9638H22.0121V50.1687C22.0121 51.1759 22.8358 52 23.8435 52H39.4093C40.416 52 41.8408 51.435 42.5738 50.7451L47.6896 45.9297C48.4235 45.2397 49.0233 43.8506 49.0233 42.8434L49.0241 20.8676C49.0241 19.8602 48.1999 19.0361 47.1927 19.0361ZM22.012 20.8675V45.5903H18.8072C18.5591 45.5903 18.3494 45.3807 18.3494 45.1326V15.8313C18.3494 15.5832 18.5591 15.3736 18.8072 15.3736H42.1571C42.4047 15.3736 42.6148 15.5832 42.6148 15.8313V19.0362H23.8433C22.8357 19.0362 22.012 19.8602 22.012 20.8675ZM46.7482 44.9296L41.6324 49.7447C41.5276 49.8432 41.3911 49.9398 41.2405 50.0317V45.8192C41.2405 45.5047 41.3673 45.2217 41.5765 45.0111C41.7876 44.8019 42.0705 44.6747 42.3851 44.6747H46.9657C46.8947 44.7712 46.8219 44.86 46.7482 44.9296ZM47.6496 42.8433C47.6496 42.9792 47.6248 43.1367 47.5873 43.3011H42.385C40.9955 43.3038 39.8697 44.4296 39.8669 45.8191V50.5709C39.7035 50.6039 39.546 50.6263 39.4091 50.6263H23.8433V50.6264C23.5947 50.6264 23.3855 50.4167 23.3855 50.1686V20.8674C23.3855 20.6193 23.5948 20.4097 23.8433 20.4097H47.1926C47.4408 20.4097 47.6504 20.6193 47.6504 20.8674L47.6496 42.8433Z" fill="url(#paint1_linear)"/>
<path d="M42.157 25.4457H28.88C28.5004 25.4457 28.1932 25.7529 28.1932 26.1325C28.1932 26.512 28.5005 26.8192 28.88 26.8192H42.157C42.5361 26.8192 42.8438 26.512 42.8438 26.1325C42.8438 25.7529 42.5361 25.4457 42.157 25.4457Z" fill="url(#paint2_linear)"/>
<path d="M42.157 34.6024H28.88C28.5004 34.6024 28.1932 34.9095 28.1932 35.2891C28.1932 35.6687 28.5005 35.9758 28.88 35.9758H42.157C42.5361 35.9758 42.8438 35.6687 42.8438 35.2891C42.8438 34.9095 42.5361 34.6024 42.157 34.6024Z" fill="url(#paint3_linear)"/>
<path d="M36.2052 39.1807H28.88C28.5004 39.1807 28.1932 39.4879 28.1932 39.8674C28.1932 40.247 28.5004 40.5542 28.88 40.5542H36.2052C36.5843 40.5542 36.8915 40.247 36.8915 39.8674C36.8915 39.4879 36.5843 39.1807 36.2052 39.1807Z" fill="url(#paint4_linear)"/>
<path d="M42.157 30.024H28.88C28.5004 30.024 28.1932 30.3312 28.1932 30.7108C28.1932 31.0903 28.5005 31.3975 28.88 31.3975H42.157C42.5361 31.3975 42.8438 31.0903 42.8438 30.7108C42.8438 30.3312 42.5361 30.024 42.157 30.024Z" fill="url(#paint5_linear)"/>
<defs>
<linearGradient id="paint0_linear" x1="33.09" y1="0" x2="33.09" y2="65" gradientUnits="userSpaceOnUse">
<stop stop-color="#E2ECEA"/>
<stop offset="1" stop-color="#F5FAF8"/>
</linearGradient>
<linearGradient id="paint1_linear" x1="8.91914" y1="46.422" x2="38.3303" y2="-4.04504" gradientUnits="userSpaceOnUse">
<stop stop-color="#35756C"/>
<stop offset="1" stop-color="#46AB7E"/>
</linearGradient>
<linearGradient id="paint2_linear" x1="24.5101" y1="26.6176" x2="24.6225" y2="24.1791" gradientUnits="userSpaceOnUse">
<stop stop-color="#35756C"/>
<stop offset="1" stop-color="#46AB7E"/>
</linearGradient>
<linearGradient id="paint3_linear" x1="24.5101" y1="35.7742" x2="24.6225" y2="33.3358" gradientUnits="userSpaceOnUse">
<stop stop-color="#35756C"/>
<stop offset="1" stop-color="#46AB7E"/>
</linearGradient>
<linearGradient id="paint4_linear" x1="26.0065" y1="40.3525" x2="26.195" y2="37.9235" gradientUnits="userSpaceOnUse">
<stop stop-color="#35756C"/>
<stop offset="1" stop-color="#46AB7E"/>
</linearGradient>
<linearGradient id="paint5_linear" x1="24.5101" y1="31.1959" x2="24.6225" y2="28.7574" gradientUnits="userSpaceOnUse">
<stop stop-color="#35756C"/>
<stop offset="1" stop-color="#46AB7E"/>
</linearGradient>
</defs>
</svg>
