<svg width="40" height="40" viewBox="0 0 40 40" fill="none" xmlns="http://www.w3.org/2000/svg">
<path d="M16.6472 2.66992C8.93124 2.66992 2.67627 8.92489 2.67627 16.6408C2.67627 24.3567 8.93124 30.6117 16.6472 30.6117C24.3631 30.6117 30.6181 24.3567 30.6181 16.6408C30.6097 8.92838 24.3596 2.67832 16.6472 2.66992ZM16.6472 4.00048C20.7566 4.00373 24.6075 6.00655 26.9697 9.3693L25.3065 11.0325C24.9017 10.7876 24.4383 10.6565 23.9653 10.6533C22.4956 10.6533 21.3041 11.8447 21.3041 13.3144C21.3065 13.788 21.4368 14.2521 21.6813 14.6576L17.3251 19.0139C16.5002 18.5109 15.4635 18.5109 14.6387 19.0139L11.613 15.9882C11.8576 15.5827 11.9879 15.1186 11.9902 14.645C11.992 13.1782 10.8045 11.9877 9.33772 11.9858C8.12467 11.9844 7.06479 12.8049 6.76242 13.9797H4.29423C5.55386 8.1629 10.6956 4.00922 16.6472 4.00048ZM25.2958 13.3144C25.2958 14.0493 24.7001 14.645 23.9653 14.645C23.2304 14.645 22.6347 14.0493 22.6347 13.3144C22.6347 12.5795 23.2304 11.9839 23.9653 11.9839C24.7001 11.9839 25.2958 12.5795 25.2958 13.3144ZM17.3124 21.2978C17.3124 22.0327 16.7168 22.6283 15.9819 22.6283C15.247 22.6283 14.6513 22.0327 14.6513 21.2978C14.6513 20.5629 15.247 19.9672 15.9819 19.9672C16.7168 19.9672 17.3124 20.5629 17.3124 21.2978ZM10.6596 14.645C10.6596 15.3799 10.064 15.9755 9.32908 15.9755C8.59419 15.9755 7.99851 15.3799 7.99851 14.645C7.99851 13.9101 8.59419 13.3144 9.32908 13.3144C10.064 13.3144 10.6596 13.9101 10.6596 14.645ZM22.7889 27.6933C20.9101 28.7365 18.7962 29.283 16.6472 29.2811C9.67086 29.2858 4.01157 23.6343 4.00683 16.658C4.0065 16.2078 4.03028 15.7578 4.07802 15.3102H6.76242C7.06488 16.4815 8.11935 17.3014 9.32908 17.306C9.80267 17.3037 10.2668 17.1734 10.6723 16.9288L13.698 19.9545C13.4534 20.36 13.3231 20.8241 13.3208 21.2977C13.3208 22.7674 14.5122 23.9588 15.9819 23.9588C17.4516 23.9588 18.643 22.7674 18.643 21.2977C18.6407 20.8241 18.5104 20.36 18.2658 19.9545L22.622 15.5982C23.0275 15.8428 23.4917 15.9731 23.9653 15.9755C25.4349 15.9755 26.6264 14.784 26.6264 13.3143C26.624 12.8407 26.4937 12.3766 26.2492 11.9711L27.6995 10.5215C31.0853 16.6194 28.8867 24.3075 22.7889 27.6933Z" fill="#47AD7F"/>
<path d="M33.2791 6.66166C34.4889 6.65708 35.5433 5.83721 35.8458 4.66581H39.9319V3.33525H35.8458C35.5433 2.16386 34.4889 1.34399 33.2791 1.33941C31.8095 1.33941 30.618 2.53085 30.618 4.00053C30.6203 4.47413 30.7507 4.93825 30.9952 5.34374L29.8263 6.51263C24.2334 -0.773935 13.7925 -2.14691 6.50592 3.44602C-0.780649 9.03895 -2.15362 19.48 3.43931 26.7665C8.71864 33.6444 18.3961 35.3129 25.6737 30.5998L27.6815 32.6076L28.6222 33.5483L33.9777 38.9038C35.3398 40.2659 37.548 40.2659 38.9101 38.9038C40.2722 37.5417 40.2722 35.3335 38.9101 33.9714L33.5546 28.6159L32.6139 27.6752L30.606 25.6674C34.1702 20.1775 34.1702 13.1043 30.606 7.61434L31.9366 6.28378C32.3418 6.52843 32.8058 6.659 33.2791 6.66166ZM33.2791 2.66997C34.014 2.66997 34.6097 3.26565 34.6097 4.00053C34.6097 4.73542 34.014 5.3311 33.2791 5.3311C32.5443 5.3311 31.9486 4.73542 31.9486 4.00053C31.9486 3.26565 32.5443 2.66997 33.2791 2.66997ZM37.9694 34.9121C38.8214 35.7451 38.837 37.1111 38.004 37.9631C37.1711 38.8152 35.8051 38.8307 34.9531 37.9978C34.9413 37.9864 34.9299 37.9748 34.9184 37.9631L29.5629 32.6076L32.6139 29.5566L37.9694 34.9121ZM31.6732 28.6159L28.6222 31.6669L26.7807 29.8254C26.8745 29.7535 26.9623 29.6744 27.0548 29.6005C27.1473 29.5267 27.2544 29.4382 27.3535 29.355C27.4992 29.2326 27.6429 29.1089 27.7839 28.9818C27.8564 28.9153 27.9256 28.8488 27.9968 28.7822C28.2696 28.5268 28.5337 28.2627 28.7892 27.9899C28.8557 27.9187 28.9222 27.8495 28.9887 27.777C29.1158 27.636 29.2396 27.4923 29.362 27.3466C29.4454 27.2481 29.5272 27.1486 29.6075 27.0479C29.6806 26.956 29.7598 26.8682 29.8317 26.7744L31.6732 28.6159ZM29.0932 25.5257C28.8836 25.8184 28.6674 26.1052 28.4392 26.3812C28.3727 26.4617 28.3015 26.5396 28.233 26.6187C28.0294 26.8556 27.8192 27.0854 27.6023 27.308C27.5078 27.4055 27.4118 27.5016 27.3142 27.596C27.0924 27.8129 26.8628 28.0232 26.625 28.2267C26.5458 28.2933 26.468 28.3658 26.3875 28.433C26.1114 28.6612 25.8247 28.8774 25.5319 29.0869C18.645 34.0071 9.07332 32.4127 4.15316 25.5257C-0.767011 18.6387 0.827417 9.06706 7.7144 4.1469C14.6014 -0.77327 24.173 0.821075 29.0932 7.70814C32.9003 13.0372 32.9003 20.1966 29.0932 25.5257Z" fill="#345653"/>
</svg>
