<svg width="35" height="40" viewBox="0 0 35 40" fill="none" xmlns="http://www.w3.org/2000/svg">
<path d="M31.8147 5.30116H28.4412V1.92773C28.4413 0.86742 27.5737 0 26.5139 0H1.93522C0.874989 0 0.00756836 0.86742 0.00756836 1.92773V32.771C0.00756836 33.8313 0.874989 34.6988 1.9353 34.6988H5.30881V38.0723C5.30881 39.1325 6.17584 40 7.23654 40H23.6216C24.6814 40 26.1811 39.4053 26.9527 38.6791L32.3377 33.6102C33.1102 32.8839 33.7416 31.4217 33.7416 30.3615L33.7425 7.22905C33.7424 6.16866 32.8749 5.30116 31.8147 5.30116ZM5.30865 7.22897V33.253H1.93522C1.67405 33.253 1.45335 33.0323 1.45335 32.7711V1.92773C1.45335 1.66656 1.67405 1.44586 1.93522 1.44586H26.514C26.7747 1.44586 26.9959 1.66656 26.9959 1.92773V5.30124H7.23638C6.17568 5.30124 5.30865 6.16866 5.30865 7.22897ZM31.3468 32.5575L25.9617 37.626C25.8514 37.7297 25.7078 37.8313 25.5492 37.9281V33.4939C25.5492 33.1628 25.6827 32.8649 25.9029 32.6433C26.1251 32.4231 26.4229 32.2892 26.754 32.2892H31.5757C31.5009 32.3907 31.4244 32.4842 31.3468 32.5575ZM32.2956 30.3613C32.2956 30.5045 32.2695 30.6703 32.2301 30.8432H26.7539C25.2913 30.8461 24.1063 32.0312 24.1033 33.4938V38.4957C23.9313 38.5305 23.7655 38.554 23.6214 38.554H7.23638V38.5541C6.97467 38.5541 6.75451 38.3334 6.75451 38.0722V7.22889C6.75451 6.96772 6.97474 6.74702 7.23638 6.74702H31.8146C32.0758 6.74702 32.2965 6.96772 32.2965 7.22889L32.2956 30.3613Z" fill="#345653"/>
<path d="M26.5139 12.0481H12.5381C12.1385 12.0481 11.8152 12.3715 11.8152 12.771C11.8152 13.1705 12.1386 13.4939 12.5381 13.4939H26.5139C26.913 13.4939 27.2368 13.1705 27.2368 12.771C27.2368 12.3715 26.913 12.0481 26.5139 12.0481Z" fill="#47AD7F"/>
<path d="M26.5139 21.6866H12.5381C12.1385 21.6866 11.8152 22.01 11.8152 22.4095C11.8152 22.8091 12.1386 23.1324 12.5381 23.1324H26.5139C26.913 23.1324 27.2368 22.8091 27.2368 22.4095C27.2368 22.0099 26.913 21.6866 26.5139 21.6866Z" fill="#47AD7F"/>
<path d="M20.249 26.506H12.5382C12.1387 26.506 11.8153 26.8293 11.8153 27.2289C11.8153 27.6284 12.1387 27.9518 12.5382 27.9518H20.249C20.648 27.9518 20.9714 27.6284 20.9714 27.2289C20.9714 26.8293 20.648 26.506 20.249 26.506Z" fill="#47AD7F"/>
<path d="M26.5139 16.8674H12.5381C12.1385 16.8674 11.8152 17.1908 11.8152 17.5903C11.8152 17.9899 12.1386 18.3132 12.5381 18.3132H26.5139C26.913 18.3132 27.2368 17.9899 27.2368 17.5903C27.2368 17.1908 26.913 16.8674 26.5139 16.8674Z" fill="#47AD7F"/>
</svg>
