<svg width="40" height="40" viewBox="0 0 40 40" fill="none" xmlns="http://www.w3.org/2000/svg">
<g clip-path="url(#clip0)">
<path d="M18.7177 38.2439H9.94959C8.20843 38.2439 6.84033 36.8758 6.84033 35.1346V31.0926C6.84033 30.7194 7.08907 30.4707 7.46222 30.4707C7.83536 30.4707 8.0841 30.7194 8.0841 31.0926V35.1346C8.0841 36.1917 8.89252 37.0002 9.94967 37.0002H18.7178C19.0909 37.0002 19.3396 37.2489 19.3396 37.622C19.3396 37.9329 19.0908 38.2439 18.7177 38.2439Z" fill="url(#paint0_linear)"/>
<path d="M8.76812 33.4555L7.46222 31.7766L6.15633 33.4555C5.9698 33.7043 5.53445 33.7665 5.28571 33.5799C5.03698 33.3934 4.97477 32.9581 5.1613 32.7093L6.96467 30.4085C7.21341 30.0976 7.71088 30.0976 7.95962 30.4085L9.76298 32.7093C9.94952 32.9581 9.94952 33.3933 9.63858 33.5799C9.38992 33.7664 8.95465 33.7043 8.76812 33.4555Z" fill="url(#paint1_linear)"/>
<path d="M19.5883 28.9782H3.79332C1.74121 28.9782 0.0622559 27.2992 0.0622559 25.2471V3.73106C0.0622559 1.67896 1.74121 0 3.79332 0H19.5883C21.6404 0 23.3193 1.67896 23.3193 3.73106V25.2471C23.3194 27.2992 21.6404 28.9782 19.5883 28.9782ZM3.79332 1.24369C2.42522 1.24369 1.30594 2.36305 1.30594 3.73106V25.2471C1.30594 26.6152 2.4253 27.7344 3.79332 27.7344H19.5883C20.9564 27.7344 22.0756 26.6151 22.0756 25.2471V3.73106C22.0756 2.36297 20.9563 1.24369 19.5883 1.24369H3.79332Z" fill="#345653"/>
<path d="M3.79327 25.8689C3.42012 25.8689 3.17139 25.6202 3.17139 25.247V3.73101C3.17139 3.35787 3.42012 3.10913 3.79327 3.10913H19.5882C19.9614 3.10913 20.2101 3.35787 20.2101 3.73101V25.247C20.2101 25.6202 19.9614 25.8689 19.5882 25.8689H3.79327Z" fill="white"/>
<path d="M18.0337 6.3429H5.41016V7.15131H18.0337V6.3429Z" fill="#47AD7F"/>
<path d="M18.0337 9.45215H5.41016V10.2606H18.0337V9.45215Z" fill="#47AD7F"/>
<path d="M18.0337 12.4991H5.41016V13.3076H18.0337V12.4991Z" fill="#47AD7F"/>
<path d="M18.0337 15.6084H5.41016V16.4168H18.0337V15.6084Z" fill="#47AD7F"/>
<path d="M18.0337 18.7178H5.41016V19.5262H18.0337V18.7178Z" fill="#47AD7F"/>
<path d="M18.0337 21.7648H5.41016V22.5732H18.0337V21.7648Z" fill="#47AD7F"/>
<path d="M32.0253 13.3698H20.7698C19.5883 13.3698 18.6555 14.3025 18.6555 15.4841V37.2488C18.6555 38.4303 19.5883 39.3631 20.7698 39.3631H37.1245C38.3059 39.3631 39.2388 38.4304 39.2388 37.2488V20.521L32.0253 13.3698Z" fill="white"/>
<path d="M37.1244 39.9227H20.7698C19.2774 39.9227 18.0337 38.6791 18.0337 37.1866V15.4219C18.0337 13.9295 19.2774 12.6858 20.7698 12.6858H32.0253C32.2118 12.6858 32.3362 12.748 32.4605 12.8723L39.674 20.0858C39.7983 20.2102 39.8605 20.3345 39.8605 20.5211V37.1866C39.8606 38.7413 38.6169 39.9227 37.1244 39.9227ZM20.7698 13.9916C19.9614 13.9916 19.2774 14.6756 19.2774 15.484V37.2488C19.2774 38.0572 19.9614 38.7412 20.7698 38.7412H37.1244C37.9328 38.7412 38.6169 38.0572 38.6169 37.2488V20.8319L31.7765 13.9916H20.7698Z" fill="#345653"/>
<path d="M31.9009 14.0537V18.5311C31.9009 19.7125 32.8958 20.7076 34.0774 20.7076H38.5547L31.9009 14.0537Z" fill="#47AD7F"/>
<path d="M30.4084 17.2875H21.7025V18.1581H30.4084V17.2875Z" fill="#47AD7F"/>
<path d="M30.0354 20.2102H21.3295V21.0808H30.0354V20.2102Z" fill="#47AD7F"/>
<path d="M36.6891 23.6926H20.9563V24.4388H36.6891V23.6926Z" fill="#47AD7F"/>
<path d="M36.6891 27.2371H20.9563V27.9833H36.6891V27.2371Z" fill="#47AD7F"/>
<path d="M36.6891 30.7194H20.9563V31.4656H36.6891V30.7194Z" fill="#47AD7F"/>
<path d="M28.7916 34.2018H20.9563V34.948H28.7916V34.2018Z" fill="#47AD7F"/>
<path d="M34.1395 10.8824C33.7664 10.8824 33.5176 10.6336 33.5176 10.2605V6.21847C33.5176 5.16131 32.7092 4.3529 31.6521 4.3529H22.6974C22.3243 4.3529 22.0756 4.10416 22.0756 3.73101C22.0756 3.35787 22.3243 3.10913 22.6974 3.10913H31.6521C33.3932 3.10913 34.7613 4.47723 34.7613 6.21839V10.2605C34.7613 10.6336 34.4505 10.8824 34.1395 10.8824Z" fill="url(#paint2_linear)"/>
<path d="M34.1396 10.8823C33.953 10.8823 33.7664 10.8201 33.6421 10.6336L31.8387 8.33276C31.6522 8.08402 31.6522 7.64875 31.9631 7.46214C32.2119 7.2756 32.6471 7.2756 32.8338 7.58654L34.1396 9.2655L35.4455 7.58654C35.6321 7.33781 36.0674 7.2756 36.3162 7.46214C36.5649 7.64867 36.6271 8.08402 36.4406 8.33276L34.6372 10.6336C34.5126 10.8201 34.3261 10.8823 34.1396 10.8823Z" fill="url(#paint3_linear)"/>
</g>
<defs>
<linearGradient id="paint0_linear" x1="3.69805" y1="37.1028" x2="7.56395" y2="24.455" gradientUnits="userSpaceOnUse">
<stop stop-color="#35756C"/>
<stop offset="1" stop-color="#46AB7E"/>
</linearGradient>
<linearGradient id="paint1_linear" x1="3.83674" y1="33.1727" x2="5.81562" y2="27.6288" gradientUnits="userSpaceOnUse">
<stop stop-color="#35756C"/>
<stop offset="1" stop-color="#46AB7E"/>
</linearGradient>
<linearGradient id="paint2_linear" x1="18.8864" y1="9.74133" x2="22.7051" y2="-2.93825" gradientUnits="userSpaceOnUse">
<stop stop-color="#35756C"/>
<stop offset="1" stop-color="#46AB7E"/>
</linearGradient>
<linearGradient id="paint3_linear" x1="30.4953" y1="10.3616" x2="32.5086" y2="4.77576" gradientUnits="userSpaceOnUse">
<stop stop-color="#35756C"/>
<stop offset="1" stop-color="#46AB7E"/>
</linearGradient>
<clipPath id="clip0">
<rect width="39.9198" height="40" fill="white"/>
</clipPath>
</defs>
</svg>
