<svg width="40" height="40" viewBox="0 0 40 40" fill="none" xmlns="http://www.w3.org/2000/svg">
<g clip-path="url(#clip0)">
<path d="M30.3335 0H3.66672C1.82671 0.00216668 0.335541 1.49334 0.333374 3.33335V24.6668C0.333207 26.1872 1.36188 27.5149 2.83405 27.8948L3.16739 26.6041C2.2838 26.3763 1.66638 25.5793 1.66671 24.6668V3.33335C1.66671 2.22876 2.56213 1.33334 3.66672 1.33334H30.3335C31.4381 1.33334 32.3335 2.22876 32.3335 3.33335V4.00002H33.6668V3.33335C33.6647 1.49334 32.1735 0.00216668 30.3335 0Z" fill="#345653"/>
<path d="M4.33334 2.66663H3V3.99996H4.33334V2.66663Z" fill="#47AD7F"/>
<path d="M7.00009 2.66663H5.66675V3.99996H7.00009V2.66663Z" fill="#47AD7F"/>
<path d="M9.66671 2.66663H8.33337V3.99996H9.66671V2.66663Z" fill="#47AD7F"/>
<path d="M39.4715 36.8622L33.1481 30.5388C33.4803 29.9459 33.7459 29.3181 33.9401 28.6668H35.0001V27.3335H34.2268C34.4779 25.7197 34.2843 24.0681 33.6668 22.5561V16.0001H32.3334V20.2455C31.9375 19.7397 31.4908 19.276 31.0001 18.8614V13.3334H29.6668V17.9294C29.24 17.6821 28.7941 17.4692 28.3334 17.2928V10.6667H27.0001V16.8881C26.5607 16.7933 26.1152 16.7307 25.6667 16.7008V12.0001H24.3334V16.7008C23.885 16.7307 23.4394 16.7933 23.0001 16.8881V14.6668H21.6667V17.2928C21.2061 17.4692 20.7602 17.6821 20.3334 17.9294V14.0001H19V18.8614C18.5094 19.276 18.0626 19.7397 17.6667 20.2455V15.3334H16.3334V22.5561C15.7159 24.0681 15.5223 25.7197 15.7734 27.3335H7V28.6668H16.06C17.5222 33.5987 22.7056 36.4114 27.6373 34.9492C28.6092 34.661 29.5275 34.2162 30.3561 33.6322L36.5288 39.8049C36.7891 40.0651 37.2111 40.0651 37.4715 39.8049L39.4715 37.8049C39.7317 37.5445 39.7317 37.1225 39.4715 36.8622ZM25.0001 34.0002C20.5837 33.9954 17.0048 30.4165 17 26.0001C17 21.5819 20.5818 18.0001 25.0001 18.0001C29.4183 18.0001 33.0001 21.5819 33.0001 26.0001C33.0001 30.4184 29.4183 34.0002 25.0001 34.0002ZM37.0001 38.3909L31.3921 32.7828C31.7554 32.4395 32.0909 32.0679 32.3954 31.6715L38.0575 37.3335L37.0001 38.3909Z" fill="#345653"/>
<path d="M25.0001 19.3334C21.3181 19.3334 18.3334 22.3181 18.3334 26.0001C18.3334 29.682 21.3181 32.6668 25.0001 32.6668C28.682 32.6668 31.6668 29.682 31.6668 26.0001C31.6628 22.3198 28.6803 19.3374 25.0001 19.3334ZM25.0001 31.3334C23.0971 31.331 21.3396 30.3148 20.388 28.6667H29.6121C28.6606 30.3148 26.9031 31.331 25.0001 31.3334ZM19.842 27.3334C19.3056 25.3034 20.0219 23.1484 21.6667 21.8434V26.0001H23.0001V21.0594C23.4276 20.8864 23.8758 20.7699 24.3334 20.7127V26.0001H25.6667V20.7127C26.1243 20.7699 26.5726 20.8864 27.0001 21.0594V26.0001H28.3334V21.8434C29.9783 23.1484 30.6945 25.3034 30.1581 27.3334H19.842Z" fill="#47AD7F"/>
<path d="M34.3335 5.33337H7.66672C5.82671 5.33554 4.33554 6.82671 4.33337 8.66672V30.0001C4.33554 31.8402 5.82671 33.3313 7.66672 33.3335H16.3334V32.0002H7.66672C6.56213 32.0002 5.66671 31.1047 5.66671 30.0001V8.66672C5.66671 7.56213 6.56213 6.66671 7.66672 6.66671H34.3335C35.4381 6.66671 36.3335 7.56213 36.3335 8.66672V30.0001C36.3334 30.4872 36.1557 30.9575 35.8335 31.3228L36.8335 32.2048C37.3708 31.5962 37.6672 30.8121 37.6668 30.0001V8.66672C37.6647 6.82671 36.1735 5.33554 34.3335 5.33337Z" fill="#345653"/>
<path d="M8.33334 8H7V9.33334H8.33334V8Z" fill="#47AD7F"/>
<path d="M11.0001 8H9.66675V9.33334H11.0001V8Z" fill="#47AD7F"/>
<path d="M13.6667 8H12.3334V9.33334H13.6667V8Z" fill="#47AD7F"/>
<path d="M9.66671 22.0001H8.33337V26.0001H9.66671V22.0001Z" fill="#47AD7F"/>
<path d="M12.3333 18.0001H11V26.0002H12.3333V18.0001Z" fill="#47AD7F"/>
<path d="M15.0001 20.0001H13.6667V26.0001H15.0001V20.0001Z" fill="#47AD7F"/>
</g>
<defs>
<clipPath id="clip0">
<rect width="40" height="40" fill="white"/>
</clipPath>
</defs>
</svg>
