<svg width="41" height="41" viewBox="0 0 41 41" fill="none" xmlns="http://www.w3.org/2000/svg">
<path d="M18.786 19.036C20.1953 19.092 21.2267 19.4 21.88 19.96C22.5427 20.52 22.874 21.2807 22.874 22.242C22.874 22.6713 22.7993 23.068 22.65 23.432C22.51 23.796 22.2907 24.1087 21.992 24.37C21.7027 24.6313 21.334 24.8367 20.886 24.986C20.438 25.1353 19.906 25.21 19.29 25.21C19.0473 25.21 18.8 25.1913 18.548 25.154C18.296 25.1167 18.0627 25.07 17.848 25.014C17.6333 24.958 17.442 24.902 17.274 24.846C17.106 24.79 16.9847 24.7433 16.91 24.706L17.162 23.572C17.3207 23.6467 17.5773 23.7447 17.932 23.866C18.296 23.9873 18.7393 24.048 19.262 24.048C19.682 24.048 20.032 24.0013 20.312 23.908C20.6013 23.8147 20.8347 23.6887 21.012 23.53C21.1893 23.3713 21.3153 23.1893 21.39 22.984C21.474 22.7693 21.516 22.5453 21.516 22.312C21.516 21.9573 21.4553 21.6447 21.334 21.374C21.2127 21.094 20.998 20.8607 20.69 20.674C20.382 20.4873 19.9713 20.3473 19.458 20.254C18.9447 20.1513 18.296 20.1 17.512 20.1C17.568 19.6427 17.61 19.2133 17.638 18.812C17.6753 18.4107 17.708 18.0187 17.736 17.636C17.764 17.2533 17.7873 16.8753 17.806 16.502C17.8247 16.1193 17.8433 15.718 17.862 15.298H22.538V16.404H18.996C18.9867 16.544 18.9727 16.7353 18.954 16.978C18.9353 17.2113 18.9167 17.4587 18.898 17.72C18.8793 17.972 18.8607 18.2193 18.842 18.462C18.8233 18.7047 18.8047 18.896 18.786 19.036Z" fill="white"/>
<circle cx="20.5" cy="20.5" r="20" stroke="url(#paint0_linear)"/>
<circle cx="20.5" cy="20.5" r="12" stroke="white"/>
<defs>
<linearGradient id="paint0_linear" x1="-10.3073" y1="34.9817" x2="18.5693" y2="-23.7702" gradientUnits="userSpaceOnUse">
<stop stop-color="#35756C"/>
<stop offset="1" stop-color="#46AB7E"/>
</linearGradient>
</defs>
</svg>
