<svg width="41" height="41" viewBox="0 0 41 41" fill="none" xmlns="http://www.w3.org/2000/svg">
<path d="M19.164 24.048C19.9947 24.048 20.5873 23.8847 20.942 23.558C21.306 23.2313 21.488 22.7927 21.488 22.242C21.488 21.8873 21.4133 21.5887 21.264 21.346C21.1147 21.1033 20.9187 20.912 20.676 20.772C20.4333 20.6227 20.1487 20.52 19.822 20.464C19.5047 20.3987 19.178 20.366 18.842 20.366H18.506V19.302H18.968C19.2013 19.302 19.4393 19.2787 19.682 19.232C19.934 19.1853 20.1627 19.1013 20.368 18.98C20.5733 18.8587 20.7413 18.6953 20.872 18.49C21.0027 18.2753 21.068 18.0093 21.068 17.692C21.068 17.4307 21.0213 17.2067 20.928 17.02C20.8347 16.8333 20.7087 16.6793 20.55 16.558C20.4007 16.4367 20.2233 16.3527 20.018 16.306C19.822 16.25 19.612 16.222 19.388 16.222C18.94 16.222 18.5573 16.2873 18.24 16.418C17.932 16.5487 17.6707 16.684 17.456 16.824L16.952 15.83C17.064 15.7553 17.204 15.676 17.372 15.592C17.5493 15.4987 17.7453 15.4147 17.96 15.34C18.1747 15.2653 18.4033 15.2047 18.646 15.158C18.898 15.102 19.1593 15.074 19.43 15.074C19.9433 15.074 20.3867 15.1393 20.76 15.27C21.1333 15.3913 21.4413 15.5687 21.684 15.802C21.9267 16.026 22.1087 16.2967 22.23 16.614C22.3513 16.922 22.412 17.258 22.412 17.622C22.412 18.126 22.2673 18.56 21.978 18.924C21.6887 19.2787 21.3387 19.5493 20.928 19.736C21.18 19.8107 21.4227 19.918 21.656 20.058C21.8893 20.198 22.09 20.3753 22.258 20.59C22.4353 20.8047 22.5753 21.052 22.678 21.332C22.79 21.612 22.846 21.9247 22.846 22.27C22.846 22.69 22.7713 23.082 22.622 23.446C22.482 23.8007 22.258 24.1087 21.95 24.37C21.6513 24.6313 21.2733 24.8367 20.816 24.986C20.3587 25.1353 19.8173 25.21 19.192 25.21C18.9493 25.21 18.6973 25.1913 18.436 25.154C18.184 25.1167 17.946 25.07 17.722 25.014C17.498 24.958 17.302 24.902 17.134 24.846C16.966 24.79 16.8447 24.7433 16.77 24.706L17.022 23.572C17.1807 23.6467 17.442 23.7447 17.806 23.866C18.1793 23.9873 18.632 24.048 19.164 24.048Z" fill="white"/>
<circle cx="20.5" cy="20.5" r="20" stroke="url(#paint0_linear)"/>
<circle cx="20.5" cy="20.5" r="12" stroke="white"/>
<defs>
<linearGradient id="paint0_linear" x1="-10.3073" y1="34.9817" x2="18.5693" y2="-23.7702" gradientUnits="userSpaceOnUse">
<stop stop-color="#35756C"/>
<stop offset="1" stop-color="#46AB7E"/>
</linearGradient>
</defs>
</svg>
