<svg width="25" height="45" viewBox="0 0 25 45" fill="none" xmlns="http://www.w3.org/2000/svg">
<path d="M3.9 21.65C3 21.65 2.25 21.3667 1.65 20.8C1.08333 20.2333 0.8 19.5167 0.8 18.65C0.8 17.85 1.11667 17.1667 1.75 16.6C2.38333 16.0333 3.1 15.75 3.9 15.75C4.7 15.75 5.41667 16.0333 6.05 16.6C6.71667 17.1667 7.05 17.85 7.05 18.65C7.05 19.4833 6.73333 20.2 6.1 20.8C5.5 21.3667 4.76667 21.65 3.9 21.65ZM1.5 42.75C1.33333 42.75 1.2 42.6833 1.1 42.55C1 42.45 0.966667 42.3333 1 42.2L2.4 31.9C2.43333 31.6 2.6 31.45 2.9 31.45H5.2C5.36667 31.45 5.48333 31.5 5.55 31.6C5.65 31.7 5.68333 31.8333 5.65 32L3.6 42.3C3.56667 42.6 3.38333 42.75 3.05 42.75H1.5ZM18.7773 0.849999C19.0107 0.849999 19.2107 0.949999 19.3773 1.15C20.9773 3.65 22.2773 6.76666 23.2773 10.5C24.2773 14.2333 24.7773 18.1667 24.7773 22.3C24.7773 26.5333 24.2607 30.5667 23.2273 34.4C22.2273 38.2333 20.894 41.4 19.2273 43.9C19.094 44.1 18.894 44.2 18.6273 44.2H16.2773C16.0773 44.2 15.944 44.1333 15.8773 44C15.8107 43.9 15.8273 43.7667 15.9273 43.6C17.3607 41.0333 18.5273 37.8833 19.4273 34.15C20.3273 30.3833 20.7773 26.4667 20.7773 22.4C20.7773 18.3667 20.3273 14.5 19.4273 10.8C18.5273 7.1 17.3607 3.98333 15.9273 1.45C15.8607 1.31666 15.8273 1.21666 15.8273 1.15C15.8273 0.949999 15.9773 0.849999 16.2773 0.849999H18.7773Z" fill="#47AD7F"/>
</svg>
