<svg width="65" height="65" viewBox="0 0 65 65" fill="none" xmlns="http://www.w3.org/2000/svg">
<rect width="64.8651" height="65" rx="8" fill="url(#paint0_linear)"/>
<g clip-path="url(#clip0)">
<path d="M46.4935 35.921H45.6457V31.4083C45.6457 29.7233 44.2748 28.3524 42.5898 28.3524H41.5655L44.5527 22.6945C44.8637 22.1054 44.9265 21.4304 44.7293 20.7941C44.5318 20.157 44.0975 19.635 43.5063 19.3242L32.0196 13.2868C30.8014 12.6464 29.2878 13.1148 28.6456 14.3307L21.2426 28.3524H19.3984C17.7134 28.3524 16.3425 29.7233 16.3425 31.4083V47.9441C16.3425 49.6291 17.7134 51 19.3984 51H42.5899C44.2749 51 45.6458 49.6291 45.6458 47.9441V43.4314H46.4935C46.9035 43.4314 47.2357 43.099 47.2357 42.6892V36.6632C47.2357 36.2533 46.9034 35.921 46.4935 35.921ZM29.9583 15.0238C30.2189 14.5302 30.8337 14.3405 31.3289 14.6007L42.8159 20.6381C43.0555 20.7641 43.2316 20.9755 43.3115 21.2334C43.3912 21.4905 43.3658 21.7633 43.2401 22.0015L39.887 28.3524H37.8948L39.7886 24.7654C39.8806 24.5911 39.8995 24.3874 39.8411 24.1991C39.7828 24.0109 39.6519 23.8536 39.4775 23.7619C38.9913 23.5064 38.6341 23.0772 38.4718 22.5537C38.3099 22.0314 38.3615 21.4773 38.6168 20.9936C38.7089 20.8192 38.7278 20.6156 38.6694 20.4273C38.6111 20.239 38.4802 20.0818 38.3058 19.99L34.4105 17.9427C34.0482 17.7524 33.6 17.8911 33.4088 18.2532C32.8804 19.2541 31.6338 19.6392 30.6301 19.1118C30.2678 18.9214 29.8196 19.0602 29.6284 19.4223L24.9136 28.3523H22.9212L29.9583 15.0238ZM37.0539 22.9931C37.2589 23.6546 37.6442 24.2286 38.1649 24.6613L36.2162 28.3524H26.5921L30.6316 20.7016C31.9684 21.0762 33.4162 20.6288 34.3064 19.5651L37.0259 20.9945C36.8422 21.6439 36.8494 22.3332 37.0539 22.9931ZM44.1614 47.9441C44.1614 48.8107 43.4564 49.5156 42.5899 49.5156H19.3984C18.5319 49.5156 17.8269 48.8107 17.8269 47.9441V31.4083C17.8269 30.5417 18.5319 29.8368 19.3984 29.8368H42.5899C43.4564 29.8368 44.1614 30.5417 44.1614 31.4083V35.921H41.2634C39.1928 35.921 37.5081 37.6055 37.5081 39.6762C37.5081 41.7469 39.1927 43.4315 41.2634 43.4315H44.1614V47.9441ZM45.7513 41.947H41.2633C40.0111 41.947 38.9925 40.9282 38.9925 39.6761C38.9925 38.424 40.0111 37.4053 41.2633 37.4053H45.7513V41.947Z" fill="url(#paint1_linear)"/>
</g>
<defs>
<linearGradient id="paint0_linear" x1="32.4325" y1="0" x2="32.4325" y2="65" gradientUnits="userSpaceOnUse">
<stop stop-color="#E2ECEA"/>
<stop offset="1" stop-color="#F5FAF8"/>
</linearGradient>
<linearGradient id="paint1_linear" x1="8.57608" y1="45.422" x2="38.5087" y2="-4.08894" gradientUnits="userSpaceOnUse">
<stop stop-color="#35756C"/>
<stop offset="1" stop-color="#46AB7E"/>
</linearGradient>
<clipPath id="clip0">
<rect width="31" height="38" fill="white" transform="translate(16.3425 13)"/>
</clipPath>
</defs>
</svg>
