<svg width="31" height="40" viewBox="0 0 31 40" fill="none" xmlns="http://www.w3.org/2000/svg">
<g clip-path="url(#clip0)">
<path d="M28.5984 37.0011H7.41517C5.5421 37.0015 4.02357 35.4829 4.02357 33.6099V5.12293C4.02318 4.64382 4.12509 4.17019 4.3215 3.73364C2.48669 3.7844 1.02517 5.28653 1.02478 7.12212V35.609C1.02478 37.4817 2.54331 39.0003 4.41599 39.0003H25.5996C26.935 39.0003 28.1462 38.217 28.6933 36.9987C28.6617 36.9999 28.6304 37.0011 28.5984 37.0011Z" fill="#D7F9F4"/>
<path d="M13.3929 27.289C13.1316 27.2898 12.881 27.1875 12.6943 27.0051L8.6643 23.0704C8.39879 22.8252 8.28594 22.4554 8.37028 22.104C8.45423 21.7522 8.72131 21.4734 9.06922 21.3746C9.41712 21.2758 9.79119 21.3723 10.0473 21.6276L10.0606 21.6405L13.3929 24.8935L19.9554 18.4863C20.351 18.1033 20.9816 18.1119 21.3662 18.5058C21.7508 18.8998 21.7442 19.5304 21.3518 19.9166L14.091 27.0051C13.9044 27.1875 13.6537 27.2894 13.3929 27.289Z" fill="#47AD7F"/>
<path d="M25.5997 2.71492H19.1737C18.4455 1.0648 16.8118 0 15.0082 0C13.2043 0 11.5706 1.0648 10.8423 2.71492H4.41641C1.98692 2.72429 0.0209202 4.69303 0.0142822 7.12212V35.6091C0.0220916 38.035 1.99005 39.9983 4.41641 39.9999H25.5997C28.026 39.9983 29.994 38.035 30.0022 35.6091V7.12212C29.9955 4.69303 28.0291 2.72429 25.5997 2.71492ZM11.5655 4.71411C12.0336 4.71763 12.4401 4.39393 12.5416 3.93708C12.7872 2.81878 13.8247 2.0113 15.0082 2.0113C16.1917 2.0113 17.2288 2.81683 17.4744 3.93513C17.5755 4.39237 17.9824 4.71724 18.451 4.71489H20.406V5.60789C20.4181 6.92416 19.3608 8.00068 18.0445 8.01278H11.9751C10.6588 8.00263 9.60025 6.92728 9.61041 5.61101V4.71411H11.5655ZM28.003 35.6091C27.9959 36.9316 26.9226 38.0003 25.5997 38.0007H4.41641C3.0939 38.0003 2.02011 36.9316 2.01347 35.6091V7.12212C2.01894 5.79649 3.09077 4.72231 4.41641 4.71411H7.61121V5.60711C7.59989 8.02879 9.55379 10.0006 11.9751 10.012H18.041C20.4627 10.0006 22.4162 8.02879 22.4052 5.60711V4.71411H25.5997C26.9257 4.72231 27.9975 5.79649 28.003 7.12212V35.6091Z" fill="#345653"/>
</g>
<defs>
<clipPath id="clip0">
<rect width="30.1" height="40" fill="white"/>
</clipPath>
</defs>
</svg>
