<svg width="133" height="37" viewBox="0 0 133 37" fill="none" xmlns="http://www.w3.org/2000/svg">
<path d="M4.03282 19.2266C4.42588 18.6064 4.96831 18.1054 5.6601 17.7237C6.35189 17.3419 7.1616 17.1511 8.08922 17.1511C9.17408 17.1511 10.1567 17.4294 11.0372 17.9861C11.9177 18.5427 12.6094 19.338 13.1126 20.3718C13.6314 21.4056 13.8908 22.6064 13.8908 23.9742C13.8908 25.3419 13.6314 26.5507 13.1126 27.6004C12.6094 28.6342 11.9177 29.4374 11.0372 30.0099C10.1567 30.5666 9.17408 30.8449 8.08922 30.8449C7.17732 30.8449 6.36761 30.6541 5.6601 30.2724C4.96831 29.8907 4.42588 29.3976 4.03282 28.7932V37H0V17.3419H4.03282V19.2266ZM9.78725 23.9742C9.78725 22.9563 9.50425 22.161 8.93824 21.5885C8.38795 21 7.70402 20.7058 6.88645 20.7058C6.08461 20.7058 5.40068 21 4.83467 21.5885C4.28438 22.1769 4.00924 22.9801 4.00924 23.998C4.00924 25.0159 4.28438 25.8191 4.83467 26.4076C5.40068 26.996 6.08461 27.2903 6.88645 27.2903C7.6883 27.2903 8.37223 26.996 8.93824 26.4076C9.50425 25.8032 9.78725 24.992 9.78725 23.9742Z" fill="#232323"/>
<path d="M15.2047 23.9742C15.2047 22.6064 15.4563 21.4056 15.9594 20.3718C16.4782 19.338 17.1779 18.5427 18.0583 17.9861C18.9388 17.4294 19.9214 17.1511 21.0063 17.1511C21.9339 17.1511 22.7436 17.3419 23.4354 17.7237C24.1429 18.1054 24.6854 18.6064 25.0627 19.2266V17.3419H29.0955V30.6541H25.0627V28.7694C24.6696 29.3897 24.1194 29.8907 23.4118 30.2724C22.72 30.6541 21.9103 30.8449 20.9827 30.8449C19.9136 30.8449 18.9388 30.5666 18.0583 30.0099C17.1779 29.4374 16.4782 28.6342 15.9594 27.6004C15.4563 26.5507 15.2047 25.3419 15.2047 23.9742ZM25.0627 23.998C25.0627 22.9801 24.7797 22.1769 24.2137 21.5885C23.6634 21 22.9873 20.7058 22.1855 20.7058C21.3836 20.7058 20.6997 21 20.1337 21.5885C19.5834 22.161 19.3083 22.9563 19.3083 23.9742C19.3083 24.992 19.5834 25.8032 20.1337 26.4076C20.6997 26.996 21.3836 27.2903 22.1855 27.2903C22.9873 27.2903 23.6634 26.996 24.2137 26.4076C24.7797 25.8191 25.0627 25.0159 25.0627 23.998Z" fill="#232323"/>
<path d="M40.0316 17.1988C41.5724 17.1988 42.7987 17.7078 43.7106 18.7256C44.6383 19.7276 45.1021 21.1113 45.1021 22.8767V30.6541H41.0928V23.4254C41.0928 22.5348 40.8649 21.8429 40.4089 21.3499C39.9529 20.8569 39.3398 20.6103 38.5694 20.6103C37.799 20.6103 37.1858 20.8569 36.7298 21.3499C36.2739 21.8429 36.0459 22.5348 36.0459 23.4254V30.6541H32.0131V17.3419H36.0459V19.1074C36.4547 18.5189 37.005 18.0577 37.6968 17.7237C38.3886 17.3738 39.1668 17.1988 40.0316 17.1988Z" fill="#232323"/>
<path d="M47.1026 23.9742C47.1026 22.6064 47.3542 21.4056 47.8573 20.3718C48.3762 19.338 49.0758 18.5427 49.9563 17.9861C50.8367 17.4294 51.8194 17.1511 52.9042 17.1511C53.769 17.1511 54.5551 17.334 55.2626 17.6998C55.9858 18.0656 56.5518 18.5586 56.9606 19.1789V13H60.9935V30.6541H56.9606V28.7455C56.5833 29.3817 56.0409 29.8907 55.3334 30.2724C54.6416 30.6541 53.8319 30.8449 52.9042 30.8449C51.8194 30.8449 50.8367 30.5666 49.9563 30.0099C49.0758 29.4374 48.3762 28.6342 47.8573 27.6004C47.3542 26.5507 47.1026 25.3419 47.1026 23.9742ZM56.9606 23.998C56.9606 22.9801 56.6776 22.1769 56.1116 21.5885C55.5613 21 54.8853 20.7058 54.0834 20.7058C53.2816 20.7058 52.5976 21 52.0316 21.5885C51.4813 22.161 51.2062 22.9563 51.2062 23.9742C51.2062 24.992 51.4813 25.8032 52.0316 26.4076C52.5976 26.996 53.2816 27.2903 54.0834 27.2903C54.8853 27.2903 55.5613 26.996 56.1116 26.4076C56.6776 25.8191 56.9606 25.0159 56.9606 23.998Z" fill="#232323"/>
<path d="M63.1092 23.9742C63.1092 22.6064 63.3607 21.4056 63.8639 20.3718C64.3827 19.338 65.0823 18.5427 65.9628 17.9861C66.8433 17.4294 67.8259 17.1511 68.9108 17.1511C69.8384 17.1511 70.6481 17.3419 71.3399 17.7237C72.0474 18.1054 72.5898 18.6064 72.9672 19.2266V17.3419H77V30.6541H72.9672V28.7694C72.5741 29.3897 72.0238 29.8907 71.3163 30.2724C70.6245 30.6541 69.8148 30.8449 68.8872 30.8449C67.8181 30.8449 66.8433 30.5666 65.9628 30.0099C65.0823 29.4374 64.3827 28.6342 63.8639 27.6004C63.3607 26.5507 63.1092 25.3419 63.1092 23.9742ZM72.9672 23.998C72.9672 22.9801 72.6842 22.1769 72.1182 21.5885C71.5679 21 70.8918 20.7058 70.09 20.7058C69.2881 20.7058 68.6042 21 68.0382 21.5885C67.4879 22.161 67.2127 22.9563 67.2127 23.9742C67.2127 24.992 67.4879 25.8032 68.0382 26.4076C68.6042 26.996 69.2881 27.2903 70.09 27.2903C70.8918 27.2903 71.5679 26.996 72.1182 26.4076C72.6842 25.8191 72.9672 25.0159 72.9672 23.998Z" fill="#232323"/>
<path d="M85.0284 19.1714C85.421 18.5567 85.9628 18.0601 86.6539 17.6818C87.3449 17.3034 88.1537 17.1143 89.0803 17.1143C90.164 17.1143 91.1455 17.3901 92.025 17.9419C92.9045 18.4936 93.5955 19.2818 94.0981 20.3064C94.6164 21.331 94.8755 22.5212 94.8755 23.8768C94.8755 25.2325 94.6164 26.4305 94.0981 27.4709C93.5955 28.4956 92.9045 29.2916 92.025 29.8591C91.1455 30.4108 90.164 30.6867 89.0803 30.6867C88.1694 30.6867 87.3606 30.4975 86.6539 30.1192C85.9628 29.7409 85.421 29.2522 85.0284 28.6532V36.7872H81V17.3034H85.0284V19.1714ZM90.7765 23.8768C90.7765 22.868 90.4938 22.0798 89.9284 21.5123C89.3787 20.9291 88.6955 20.6374 87.8789 20.6374C87.0779 20.6374 86.3947 20.9291 85.8293 21.5123C85.2797 22.0956 85.0048 22.8916 85.0048 23.9005C85.0048 24.9094 85.2797 25.7054 85.8293 26.2887C86.3947 26.8719 87.0779 27.1635 87.8789 27.1635C88.6798 27.1635 89.363 26.8719 89.9284 26.2887C90.4938 25.6897 90.7765 24.8857 90.7765 23.8768Z" fill="#47AD7F"/>
<path d="M101.017 13V30.4975H96.9889V13H101.017Z" fill="#47AD7F"/>
<path d="M103.136 23.8768C103.136 22.5212 103.387 21.331 103.889 20.3064C104.408 19.2818 105.107 18.4936 105.986 17.9419C106.866 17.3901 107.847 17.1143 108.931 17.1143C109.857 17.1143 110.666 17.3034 111.357 17.6818C112.064 18.0601 112.606 18.5567 112.983 19.1714V17.3034H117.011V30.4975H112.983V28.6296C112.59 29.2443 112.04 29.7409 111.334 30.1192C110.643 30.4975 109.834 30.6867 108.907 30.6867C107.839 30.6867 106.866 30.4108 105.986 29.8591C105.107 29.2916 104.408 28.4956 103.889 27.4709C103.387 26.4305 103.136 25.2325 103.136 23.8768ZM112.983 23.9005C112.983 22.8916 112.7 22.0956 112.135 21.5123C111.585 20.9291 110.91 20.6374 110.109 20.6374C109.308 20.6374 108.625 20.9291 108.059 21.5123C107.509 22.0798 107.235 22.868 107.235 23.8768C107.235 24.8857 107.509 25.6897 108.059 26.2887C108.625 26.8719 109.308 27.1635 110.109 27.1635C110.91 27.1635 111.585 26.8719 112.135 26.2887C112.7 25.7054 112.983 24.9094 112.983 23.9005Z" fill="#47AD7F"/>
<path d="M124.92 17.1143C125.846 17.1143 126.655 17.3034 127.346 17.6818C128.053 18.0601 128.595 18.5567 128.972 19.1714V17.3034H133V30.4739C133 31.6877 132.757 32.7832 132.27 33.7606C131.799 34.7537 131.068 35.5419 130.079 36.1251C129.105 36.7084 127.888 37 126.427 37C124.48 37 122.902 36.535 121.692 35.6049C120.483 34.6906 119.792 33.4453 119.619 31.869H123.6C123.726 32.3734 124.025 32.7675 124.496 33.0512C124.967 33.3507 125.548 33.5005 126.239 33.5005C127.071 33.5005 127.731 33.2562 128.218 32.7675C128.72 32.2946 128.972 31.53 128.972 30.4739V28.6059C128.579 29.2207 128.037 29.7251 127.346 30.1192C126.655 30.4975 125.846 30.6867 124.92 30.6867C123.836 30.6867 122.854 30.4108 121.975 29.8591C121.095 29.2916 120.397 28.4956 119.878 27.4709C119.376 26.4305 119.124 25.2325 119.124 23.8768C119.124 22.5212 119.376 21.331 119.878 20.3064C120.397 19.2818 121.095 18.4936 121.975 17.9419C122.854 17.3901 123.836 17.1143 124.92 17.1143ZM128.972 23.9005C128.972 22.8916 128.689 22.0956 128.124 21.5123C127.574 20.9291 126.899 20.6374 126.098 20.6374C125.297 20.6374 124.613 20.9291 124.048 21.5123C123.498 22.0798 123.224 22.868 123.224 23.8768C123.224 24.8857 123.498 25.6897 124.048 26.2887C124.613 26.8719 125.297 27.1635 126.098 27.1635C126.899 27.1635 127.574 26.8719 128.124 26.2887C128.689 25.7054 128.972 24.9094 128.972 23.9005Z" fill="#47AD7F"/>
<path d="M99 2.0324C95.5347 3.33807 92.846 5.86459 91.5851 9C89.6975 7.95405 88.7077 6.00792 89.0762 4.06699C89.4446 2.12606 91.099 0.57147 93.2697 0.126441C95.4403 -0.318588 97.701 0.433336 99 2.0324V2.0324Z" fill="#47AD7F"/>
<path d="M126 5.50489C125.999 7.28729 125.068 8.96027 123.5 10C121.98 6.47515 118.879 3.73125 115 2.47739C116.459 0.446801 119.185 -0.464928 121.715 0.231343C124.244 0.927614 125.984 3.06829 126 5.50489V5.50489Z" fill="#47AD7F"/>
</svg>
